<svg width="24" height="19" viewBox="0 0 24 19" fill="none" xmlns="http://www.w3.org/2000/svg">
<path d="M3.30821 11.4705C3.6757 10.7914 3.5632 9.95645 3.02697 9.39981C2.22825 8.56855 1.80076 7.57031 1.80076 6.53125C1.80076 4.1748 4.19318 1.78125 7.80056 1.78125C11.4079 1.78125 13.8004 4.1748 13.8004 6.53125C13.8004 8.8877 11.4079 11.2812 7.80056 11.2812C7.30932 11.2812 6.83309 11.233 6.38311 11.1477C5.99312 11.0734 5.58813 11.1254 5.23189 11.3035C5.07815 11.3814 4.92066 11.4557 4.75941 11.5262C4.15943 11.7934 3.5257 12.0271 2.88823 12.1941C2.99322 12.0234 3.09072 11.8564 3.18447 11.6895C3.22571 11.6189 3.26696 11.5447 3.30446 11.4705H3.30821ZM0.000824521 6.53125C0.000824521 8.08242 0.645802 9.50371 1.72202 10.6244C1.68827 10.6875 1.65077 10.7543 1.61702 10.8137C1.23078 11.4965 0.780798 12.1682 0.244566 12.7471C-0.00292535 13.0068 -0.0666732 13.3854 0.0720721 13.7082C0.218317 14.0385 0.540806 14.25 0.900794 14.25C2.51324 14.25 4.14443 13.7564 5.50189 13.1479C5.68188 13.0662 5.86187 12.9809 6.03437 12.8955C6.6006 13.0068 7.19308 13.0625 7.80056 13.0625C12.1092 13.0625 15.6003 10.1383 15.6003 6.53125C15.6003 2.92422 12.1092 0 7.80056 0C3.49195 0 0.000824521 2.92422 0.000824521 6.53125ZM16.2003 17.8125C16.8077 17.8125 17.3965 17.7531 17.9665 17.6455C18.139 17.7309 18.3189 17.8162 18.4989 17.8979C19.8564 18.5064 21.4876 19 23.1 19C23.46 19 23.7825 18.7885 23.925 18.4619C24.0675 18.1354 24 17.7568 23.7525 17.5008C23.22 16.9219 22.77 16.2502 22.3801 15.5674C22.3463 15.5043 22.3088 15.4412 22.2751 15.3781C23.355 14.2537 24 12.8324 24 11.2812C24 7.77812 20.7039 4.91699 16.5678 4.75742C16.7215 5.32148 16.8002 5.91523 16.8002 6.53125V6.55352C20.0701 6.80215 22.2001 9.0584 22.2001 11.2812C22.2001 12.3203 21.7726 13.3186 20.9739 14.1461C20.4376 14.7027 20.3251 15.5414 20.6926 16.2168C20.7339 16.291 20.7751 16.3652 20.8126 16.4357C20.9064 16.6027 21.0076 16.7697 21.1089 16.9404C20.4714 16.7734 19.8376 16.5434 19.2377 16.2725C19.0764 16.202 18.9189 16.1277 18.7652 16.0498C18.4089 15.8717 18.004 15.8197 17.614 15.8939C17.1602 15.983 16.6878 16.0275 16.1965 16.0275C13.8828 16.0275 12.0717 15.0441 11.0667 13.7156C10.4667 13.916 9.83674 14.0645 9.19176 14.1535C10.463 16.3207 13.1254 17.8125 16.2003 17.8125Z" fill="white"/>
</svg>
