<svg width="97" height="44" viewBox="0 0 97 44" fill="none" xmlns="http://www.w3.org/2000/svg">
<g filter="url(#filter0_d_1_78)">
<path d="M53.6437 13.0705C53.5822 13.0705 53.5299 13.0578 53.4869 13.0324C53.4438 13.0069 53.41 12.9623 53.3854 12.8987L52.8503 11.6004L51.5035 10.9894C51.442 10.9639 51.3989 10.9289 51.3743 10.8844C51.3497 10.8398 51.3374 10.7857 51.3374 10.7221C51.3374 10.6584 51.3497 10.6043 51.3743 10.5598C51.3989 10.5152 51.442 10.4802 51.5035 10.4548L52.8503 9.8629L53.3854 8.62185C53.41 8.55821 53.4438 8.51366 53.4869 8.4882C53.5299 8.46274 53.5822 8.45001 53.6437 8.45001C53.7052 8.45001 53.7575 8.46274 53.8005 8.4882C53.8436 8.51366 53.8774 8.55821 53.902 8.62185L54.437 9.8629L55.7839 10.4548C55.8454 10.4802 55.8884 10.5152 55.9131 10.5598C55.9377 10.6043 55.95 10.6584 55.95 10.7221C55.95 10.7857 55.9377 10.8398 55.9131 10.8844C55.8884 10.9289 55.8454 10.9639 55.7839 10.9894L54.437 11.6004L53.902 12.8987C53.8774 12.9623 53.8436 13.0069 53.8005 13.0324C53.7575 13.0578 53.7052 13.0705 53.6437 13.0705ZM53.6437 24.45C53.5945 24.45 53.5453 24.4373 53.4961 24.4118C53.4469 24.3864 53.41 24.3418 53.3854 24.2782L52.8503 23.0371L51.5219 22.4452C51.4604 22.4198 51.4174 22.3848 51.3928 22.3402C51.3682 22.2957 51.3559 22.2416 51.3559 22.1779C51.3559 22.1143 51.3682 22.0602 51.3928 22.0156C51.4174 21.9711 51.4604 21.9361 51.5219 21.9106L52.8503 21.3187L53.3854 20.0013C53.41 19.9377 53.4438 19.8931 53.4869 19.8677C53.5299 19.8422 53.5822 19.8295 53.6437 19.8295C53.7052 19.8295 53.7575 19.8422 53.8005 19.8677C53.8436 19.8931 53.8774 19.9377 53.902 20.0013L54.437 21.3187L55.7654 21.9106C55.8269 21.9361 55.87 21.9711 55.8946 22.0156C55.9192 22.0602 55.9315 22.1143 55.9315 22.1779C55.9315 22.2416 55.9192 22.2957 55.8946 22.3402C55.87 22.3848 55.8269 22.4198 55.7654 22.4452L54.437 23.0371L53.902 24.2782C53.8774 24.3418 53.8405 24.3864 53.7913 24.4118C53.7421 24.4373 53.6929 24.45 53.6437 24.45ZM45.544 21.1469C45.4456 21.1469 45.3503 21.1183 45.2581 21.061C45.1658 21.0037 45.0951 20.9242 45.0459 20.8223L43.8466 18.1684L41.2636 16.9655C41.1652 16.9146 41.0883 16.8414 41.033 16.746C40.9776 16.6505 40.95 16.5518 40.95 16.45C40.95 16.3482 40.9776 16.2495 41.033 16.1541C41.0883 16.0586 41.1652 15.9854 41.2636 15.9345L43.8466 14.7316L45.0459 12.0968C45.0951 11.9822 45.1658 11.8963 45.2581 11.839C45.3503 11.7818 45.4456 11.7531 45.544 11.7531C45.6424 11.7531 45.7378 11.7818 45.83 11.839C45.9223 11.8963 45.993 11.9759 46.0422 12.0777L47.2599 14.7316L49.8245 15.9345C49.9352 15.9854 50.0182 16.0586 50.0736 16.1541C50.1289 16.2495 50.1566 16.3482 50.1566 16.45C50.1566 16.5518 50.1289 16.6505 50.0736 16.746C50.0182 16.8414 49.9352 16.9146 49.8245 16.9655L47.2599 18.1684L46.0422 20.8223C45.993 20.9369 45.9223 21.0196 45.83 21.0705C45.7378 21.1215 45.6424 21.1469 45.544 21.1469Z" fill="#435334"/>
</g>
<defs>
<filter id="filter0_d_1_78" x="-4.95911e-05" y="1.14441e-05" width="96.9" height="97.9" filterUnits="userSpaceOnUse" color-interpolation-filters="sRGB">
<feFlood flood-opacity="0" result="BackgroundImageFix"/>
<feColorMatrix in="SourceAlpha" type="matrix" values="0 0 0 0 0 0 0 0 0 0 0 0 0 0 0 0 0 0 127 0" result="hardAlpha"/>
<feOffset dy="32.5"/>
<feGaussianBlur stdDeviation="20.475"/>
<feComposite in2="hardAlpha" operator="out"/>
<feColorMatrix type="matrix" values="0 0 0 0 0.262745 0 0 0 0 0.0941176 0 0 0 0 1 0 0 0 0.28 0"/>
<feBlend mode="normal" in2="BackgroundImageFix" result="effect1_dropShadow_1_78"/>
<feBlend mode="normal" in="SourceGraphic" in2="effect1_dropShadow_1_78" result="shape"/>
</filter>
</defs>
</svg>
